<?xml version="1.0" standalone="no"?>
<!DOCTYPE svg PUBLIC "-//W3C//DTD SVG 20010904//EN" "http://www.w3.org/TR/2001/REC-SVG-20010904/DTD/svg10.dtd">
<svg xmlns="http://www.w3.org/2000/svg" version="1.0" width="308.000000pt" height="326.000000pt" viewBox="0 0 308.000000 326.000000" preserveAspectRatio="xMidYMid meet">
<metadata>
Created by potrace 1.16, written by Peter Selinger 2001-2019
<meta name="Producer" content="Online-Convert"/></metadata>
<g transform="translate(0.000000,326.000000) scale(0.100000,-0.100000)" fill="#000000" stroke="none">
<path d="M1410 3120 c-94 -10 -232 -43 -330 -78 -96 -35 -270 -127 -318 -168 -37 -31 -37 -32 -25 -75 15 -55 9 -64 -27 -39 -48 34 -67 27 -155 -63 -184 -189 -317 -434 -376 -696 -26 -115 -35 -321 -20 -446 11 -81 10 -99 -1 -106 -11 -8 -5 -13 13 -11 3 1 12 -25 19 -56 7 -31 15 -63 18 -71 3 -9 1 -12 -5 -8 -13 8 -6 -25 14 -63 7 -14 13 -35 13 -47 0 -16 4 -21 15 -17 11 5 15 -1 15 -21 0 -17 4 -24 11 -19 8 5 9 2 1 -12 -8 -14 -5 -29 15 -64 57 -103 75 -130 83 -125 5 3 12 0 16 -6 4 -8 3 -9 -4 -5 -21 13 -13 -4 29 -61 59 -79 171 -195 254 -261 184 -149 453 -269 665 -297 l55 -7 -26 28 c-30 33 -59 86 -59 108 0 8 23 -9 51 -39 32 -34 79 -68 129 -94 l78 -41 79 40 c54 27 96 57 132 95 52 55 53 55 46 23 -4 -18 -23 -52 -42 -75 -19 -24 -31 -43 -26 -43 20 0 163 31 213 46 147 43 373 159 463 237 20 18 53 45 72 61 20 15 34 36 33 45 -2 10 3 15 14 13 9 -1 19 2 23 8 3 5 1 10 -6 10 -17 0 19 38 50 53 14 7 26 17 27 22 2 22 17 45 25 39 5 -3 9 -2 8 3 -4 21 2 34 13 27 6 -4 8 -3 4 4 -3 5 9 30 28 54 42 53 131 220 157 296 186 530 74 1064 -308 1470 -63 66 -85 74 -128 46 -14 -9 -25 -12 -25 -8 0 5 -9 -6 -20 -23 -11 -18 -24 -33 -30 -33 -5 0 -10 -7 -10 -16 0 -8 -4 -12 -10 -9 -5 3 -10 0 -10 -8 0 -8 -7 -18 -16 -21 -19 -7 -21 -10 48 76 56 70 68 111 42 140 -30 32 -180 128 -258 163 -97 45 -246 92 -347 110 -105 19 -290 26 -389 15z m275 -51 c50 -6 105 -12 124 -14 41 -5 47 -10 31 -30 -9 -10 -16 -12 -25 -5 -19 16 -142 30 -270 30 -134 0 -260 -19 -380 -56 -93 -29 -267 -111 -309 -146 l-28 -24 47 -67 c40 -58 49 -66 66 -57 10 6 19 7 19 3 0 -4 5 0 11 10 21 36 229 124 229 97 0 -5 3 -17 6 -27 5 -13 2 -13 -10 4 l-17 23 -87 -46 c-48 -25 -106 -59 -129 -74 l-42 -29 -52 70 c-28 38 -60 74 -70 79 -22 12 -14 40 11 40 11 0 22 4 25 10 3 5 35 26 71 46 240 134 523 194 779 163z m444 -124 c63 -31 136 -71 163 -90 26 -19 52 -35 57 -35 30 0 1 -44 -143 -220 -88 -107 -161 -196 -162 -198 -1 -2 -37 20 -79 47 -60 40 -87 51 -117 51 -37 0 -39 2 -36 28 4 35 46 45 55 13 3 -12 10 -21 17 -21 6 0 43 -20 81 -45 l70 -45 20 24 c89 103 265 329 265 340 0 19 -113 89 -227 142 -51 24 -93 48 -93 54 0 16 8 13 129 -45z m-316 -1 c18 -6 18 -24 1 -85 -3 -11 10 -20 49 -32 30 -9 58 -17 64 -17 12 0 25 41 27 85 1 25 5 30 25 30 13 0 29 -8 35 -17 9 -15 5 -23 -22 -47 -17 -17 -32 -36 -32 -43 -1 -37 -15 -40 -93 -16 l-77 23 3 50 c2 49 2 50 -28 50 -28 0 -30 -2 -37 -55 -4 -30 -10 -67 -12 -82 -5 -24 -2 -27 37 -33 23 -4 83 -22 132 -41 84 -31 91 -32 103 -16 23 30 60 116 64 147 3 26 7 30 33 30 42 0 48 -39 10 -57 -17 -8 -39 -35 -60 -78 -52 -99 -46 -95 -92 -72 -65 34 -213 72 -300 79 l-83 6 0 -57 c0 -31 -4 -56 -10 -56 -6 0 -10 30 -10 71 l0 72 74 -7 c84 -8 79 -12 91 79 13 108 13 108 53 100 21 -3 45 -8 55 -11z m381 -130 c25 -9 20 -53 -6 -63 -13 -5 -57 -58 -98 -118 l-74 -110 -60 34 c-55 31 -161 73 -185 73 -10 0 -24 -43 -36 -111 -6 -35 -6 -36 37 -48 57 -17 191 -85 207 -105 11 -13 11 -20 -2 -39 -8 -12 -16 -30 -18 -40 -3 -11 -8 -14 -18 -8 -11 7 -10 14 5 39 17 31 17 31 -7 51 -27 23 -155 79 -200 88 -34 6 -36 22 -16 120 13 59 13 62 -7 67 -39 10 -44 6 -50 -41 -18 -134 -13 -123 -62 -123 -40 0 -44 -2 -44 -25 0 -22 5 -25 33 -25 17 0 68 -10 112 -22 44 -11 92 -22 108 -23 15 -1 32 -3 38 -4 6 0 9 -13 7 -28 -4 -36 -46 -46 -55 -14 -3 13 -24 28 -62 43 -48 19 -75 22 -191 22 -76 0 -146 -5 -161 -11 -25 -11 -27 -10 -38 29 -7 22 -15 47 -18 55 -4 10 -1 14 7 11 8 -2 19 -20 25 -39 9 -24 18 -33 31 -32 11 2 47 6 82 9 l62 7 0 33 c0 33 1 34 44 34 50 0 50 0 61 112 7 62 9 67 29 63 98 -20 143 -32 219 -62 48 -20 90 -39 93 -44 3 -5 11 -9 18 -9 18 0 136 182 136 211 0 39 21 56 54 43z m-1526 -282 c38 -61 137 -173 199 -225 39 -32 50 -48 59 -88 l11 -49 -26 16 c-107 69 -226 185 -257 249 -20 43 -34 145 -20 145 2 0 18 -22 34 -48z m1819 -12 c-4 -45 -13 -73 -38 -111 -32 -50 -169 -177 -229 -212 l-30 -18 0 38 c0 36 5 43 68 94 66 54 170 175 204 238 9 17 20 31 24 31 4 0 4 -27 1 -60z m-1785 -195 c53 -50 128 -110 166 -135 63 -41 70 -49 74 -82 4 -44 -1 -44 -87 0 -124 62 -245 164 -283 239 -24 46 -37 106 -28 129 5 13 12 9 34 -22 16 -22 72 -80 124 -129z m1878 136 c0 -9 -7 -41 -15 -69 -18 -61 -99 -154 -184 -212 -64 -42 -199 -115 -205 -109 -2 2 -1 20 1 39 4 32 13 40 76 80 77 47 237 195 282 260 28 40 45 44 45 11z m-1865 -308 c38 -26 107 -64 155 -84 71 -32 86 -42 88 -64 4 -30 5 -30 -88 -4 -176 48 -284 133 -304 238 l-6 34 42 -37 c24 -20 74 -58 113 -83z m1831 63 c-15 -81 -129 -162 -300 -215 -89 -27 -96 -27 -87 4 5 21 22 33 88 59 88 36 208 114 263 171 37 38 46 34 36 -19z m-1391 -97 c83 -56 125 -94 125 -114 0 -8 -2 -15 -5 -15 -16 0 -233 114 -253 133 -27 25 -52 69 -52 92 0 18 70 -18 185 -96z m995 96 c0 -3 -6 -20 -14 -38 -19 -46 -59 -77 -181 -137 -84 -42 -108 -51 -118 -41 -17 18 58 83 186 159 93 56 127 71 127 57z m-790 -167 c29 -23 49 -56 50 -82 0 -16 -2 -17 -16 -5 -25 21 -54 -21 -54 -77 0 -91 54 -156 131 -158 35 -1 38 -2 22 -13 -46 -34 -139 -5 -186 59 -32 42 -35 132 -7 195 20 48 21 53 5 76 -9 14 -34 37 -55 52 -22 15 -40 29 -40 32 0 6 124 -59 150 -79z m519 50 c-23 -18 -51 -45 -61 -59 -20 -26 -20 -27 1 -67 45 -88 17 -208 -58 -250 -39 -22 -105 -29 -129 -13 -10 6 -2 11 24 16 80 14 124 71 124 159 0 56 -29 98 -54 77 -14 -12 -16 -10 -16 12 0 39 45 84 123 121 90 44 100 45 46 4z m-1002 -127 c99 -25 106 -29 119 -59 l13 -32 -57 6 c-153 16 -236 48 -295 113 -59 66 -49 75 39 35 41 -19 123 -47 181 -63z m1616 82 c-31 -88 -143 -145 -330 -167 l-52 -7 13 33 c13 31 19 34 123 59 59 14 140 42 178 62 39 20 71 36 72 37 1 0 0 -8 -4 -17z m-1919 -129 c-21 -91 -26 -202 -15 -304 12 -111 48 -240 67 -240 8 0 11 -6 8 -15 -8 -20 42 -123 74 -152 13 -12 21 -27 17 -32 -11 -18 -25 -12 -35 14 -5 13 -21 42 -34 64 -14 22 -27 46 -28 53 -7 31 -26 39 -57 23 -17 -8 -34 -15 -40 -15 -14 0 -43 92 -32 103 6 6 12 -4 17 -27 7 -43 25 -53 59 -38 l24 11 -20 63 c-26 87 -49 221 -49 291 0 65 16 185 31 235 17 53 27 27 13 -34z m225 -40 c30 -7 96 -17 147 -20 84 -6 93 -9 103 -30 l11 -24 -104 0 c-134 0 -157 5 -206 47 -41 36 -53 60 -22 48 9 -3 41 -13 71 -21z m1579 -19 c-20 -18 -53 -38 -75 -44 -43 -12 -243 -15 -243 -3 0 4 7 15 14 25 10 13 28 17 72 17 63 1 192 22 234 38 39 15 38 4 -2 -33z m-1599 -189 c77 7 73 11 86 -76 8 -52 37 -124 77 -192 15 -27 26 -48 24 -48 -10 0 64 -77 119 -124 33 -29 61 -58 63 -65 1 -7 -10 -29 -26 -49 -16 -20 -34 -47 -41 -59 -14 -28 -19 -28 -51 -3 l-25 20 34 -2 c26 -2 37 2 46 17 5 11 19 32 29 47 l18 28 -33 27 c-73 60 -132 128 -182 211 -29 50 -77 193 -77 231 0 21 -3 22 -72 20 l-73 -2 -3 48 c-2 27 0 60 5 74 6 20 9 10 11 -42 l3 -68 68 7z m2042 45 c50 -50 35 -124 -30 -151 -38 -15 -75 -7 -107 25 -55 55 -9 155 71 155 27 0 44 -8 66 -29z m-431 -71 c0 -21 -19 -27 -35 -11 -6 5 -23 11 -39 13 -28 3 -30 1 -41 -57 -30 -142 -104 -268 -222 -373 l-68 -61 48 -68 c59 -85 82 -113 95 -113 16 0 166 150 204 205 20 28 47 74 62 103 14 28 28 52 30 52 1 0 11 -9 20 -19 17 -19 17 -19 -1 -15 -15 4 -24 -4 -38 -36 -11 -23 -31 -55 -46 -71 -14 -15 -25 -30 -22 -32 6 -7 -66 -89 -100 -114 -17 -13 -27 -23 -23 -23 15 0 -122 -104 -173 -132 l-50 -27 -22 37 c-12 20 -22 43 -22 50 0 6 -4 12 -8 12 -4 0 -11 10 -15 23 -4 12 -11 25 -16 28 -6 4 -6 9 -1 12 5 3 23 -20 39 -51 16 -31 34 -62 40 -69 12 -13 54 -7 54 8 0 5 6 9 13 9 6 0 21 7 31 15 19 14 17 19 -53 121 l-73 106 23 16 c136 93 255 279 275 430 l7 52 63 0 c57 0 64 -2 64 -20z m-739 -16 c14 -39 -20 -101 -90 -163 -137 -118 -135 -240 6 -382 70 -72 72 -103 2 -47 -123 99 -170 238 -117 346 13 25 50 69 82 99 74 66 96 99 96 141 0 39 7 41 21 6z m733 -860 c40 -41 36 -86 -14 -136 -35 -35 -42 -39 -56 -27 -20 17 -107 129 -103 133 2 1 19 14 37 29 45 37 99 37 136 1z"/>
</g>
</svg>
